<?xml version="1.0" standalone="no"?>
<!DOCTYPE svg PUBLIC "-//W3C//DTD SVG 20010904//EN"
 "http://www.w3.org/TR/2001/REC-SVG-20010904/DTD/svg10.dtd">
<svg version="1.0" xmlns="http://www.w3.org/2000/svg"
 width="705.000000pt" height="705.000000pt" viewBox="0 0 705.000000 705.000000"
 preserveAspectRatio="xMidYMid meet">
<metadata>
Created by potrace 1.11, written by Peter Selinger 2001-2013
</metadata>
<g transform="translate(0.000000,705.000000) scale(0.100000,-0.100000)"
fill="#000000" stroke="none">
<path d="M3484 6482 c-9 -11 -52 -89 -96 -173 -219 -424 -307 -594 -688 -1334
-227 -440 -667 -1293 -977 -1895 -311 -602 -610 -1183 -666 -1290 -55 -107
-153 -296 -217 -420 -356 -685 -358 -688 -328 -718 17 -17 5999 -17 6016 0 7
7 12 23 12 36 0 13 -103 223 -229 465 -209 405 -436 845 -893 1732 -94 182
-203 393 -243 470 -40 77 -110 212 -155 300 -46 88 -113 219 -150 290 -37 72
-111 216 -165 320 -167 324 -265 515 -330 640 -34 66 -109 210 -165 320 -103
201 -206 400 -330 640 -37 72 -120 232 -184 357 -65 125 -125 236 -134 247
-26 30 -58 35 -78 13z m346 -2483 l0 -592 -85 -426 c-47 -234 -92 -459 -101
-498 l-15 -73 -94 0 c-52 0 -96 4 -99 8 -3 5 -48 222 -101 484 l-95 474 0 607
0 607 295 0 295 0 0 -591z m-177 -2010 c23 -12 59 -38 80 -58 117 -111 124
-282 17 -404 -55 -63 -111 -90 -200 -95 -68 -4 -85 -1 -132 20 -112 51 -178
152 -177 268 1 76 12 112 55 172 81 114 237 157 357 97z"/>
</g>
</svg>
